<svg width="142" height="900" viewBox="0 0 142 900" fill="none" xmlns="http://www.w3.org/2000/svg">
<path fill-rule="evenodd" clip-rule="evenodd" d="M4.65646 950L4.60169 949.058C3.60026 931.833 3.2 912.813 3.2 895.4C3.2 873.804 7.21301 854.013 17.4599 839.596C27.7492 825.119 44.2253 816.2 68.8 816.2C94.8926 816.2 114.633 826.529 127.829 842.923C141.004 859.29 147.6 881.629 147.6 905.6C147.6 919.617 147.2 935.041 146.197 949.071L146.131 950L4.65646 950ZM145.2 949L5.60001 949C4.60001 931.8 4.2 912.8 4.2 895.4C4.2 852.4 20.2 817.2 68.8 817.2C120.4 817.2 146.6 858 146.6 905.6C146.6 919.6 146.2 935 145.2 949ZM110.437 862.97C100.938 855.107 87.7358 851.2 73 851.2C58.7653 851.2 46.7782 854.956 38.3625 862.399C29.9656 869.825 25 881.031 25 896.2C25 902.267 25.3617 909.608 25.9128 915.8L124.53 915.8C125.264 910.408 125.8 904.059 125.8 898.8C125.8 882.667 119.91 870.812 110.437 862.97ZM125.4 916.8L25 916.8C24.4 910.4 24 902.6 24 896.2C24 865.4 44.2 850.2 73 850.2C102.8 850.2 126.8 866 126.8 898.8C126.8 904.4 126.2 911.2 125.4 916.8ZM27.8 702.83L27.8 756.23L62.6 756.23L62.6 739.83C62.6 733.047 62.4004 725.513 62.1011 719.202C61.7999 712.851 61.4014 707.84 61.0215 706.036L60.8975 705.447L62.8493 703.82L63.226 703.83C71.0602 704.034 76.6992 705.97 80.3742 709.565C84.059 713.169 85.6 718.272 85.6 724.43L85.6 756.23L122.4 756.23L122.4 732.03C122.4 725.247 122.2 717.713 121.901 711.402C121.6 705.051 121.201 700.04 120.821 698.236L120.697 697.647L122.649 696.02L123.026 696.03C130.861 696.234 136.873 698.169 140.937 701.755C145.024 705.361 147 710.513 147 716.83L147 790.43L3.8 790.43L3.80001 702.83L27.8 702.83ZM63.2 704.83C78.6 705.23 84.6 712.43 84.6 724.43L84.6 757.23L123.4 757.23L123.4 732.03C123.4 718.43 122.6 701.83 121.8 698.03L123 697.03C138.4 697.43 146 704.63 146 716.83L146 789.43L4.8 789.43L4.80001 703.83L26.8 703.83L26.8 757.23L63.6 757.23L63.6 739.83C63.6 726.23 62.8 709.63 62 705.83L63.2 704.83ZM147 517.956L147 550.764L69.2287 552.992L69.2238 552.992C66.7737 553.05 64.0284 553.126 61.2046 553.203C56.006 553.347 50.5415 553.497 46.1634 553.561C52.2119 556.289 60.9804 560.481 66.458 563.303L66.4596 563.304L107.2 584.384L107.2 608.59L69.8738 628.673L69.8606 628.68L69.8472 628.687C68.7813 629.22 67.6229 629.804 66.4025 630.419C61.3125 632.986 55.1425 636.098 50.0903 638.311C55.5194 638.295 63.8374 638.444 69.0286 638.593L147 640.415L147 667.621L3.80001 663.564L3.80001 628.391L54.7305 601.309L54.7416 601.303L54.7528 601.298C60.1665 598.591 68.1776 594.91 73.8345 592.586C69.0878 590.6 63.1977 587.832 55.7701 584.295L55.7607 584.291L3.80001 558.209L3.80001 523.027L147 517.956ZM75.1562 592.051C75.3779 592.141 75.597 592.23 75.8135 592.317C75.8759 592.342 75.938 592.367 76 592.392L76 592.792C75.9371 592.817 75.8738 592.842 75.8101 592.867C75.5959 592.952 75.3768 593.039 75.153 593.129C69.5074 595.4 60.9064 599.339 55.2 602.192L4.80001 628.992L4.80001 662.592L146 666.592L146 641.392L69 639.592C62.9287 639.419 52.6447 639.245 47.6739 639.333C47.3607 639.338 47.0686 639.345 46.8 639.352C46.4813 639.362 46.1957 639.372 45.9471 639.384C45.8965 639.387 45.8475 639.39 45.8 639.392L45.8 638.992C46.3304 638.793 46.8882 638.574 47.4691 638.337C52.7905 636.164 60.0534 632.501 65.9346 629.535C67.1597 628.917 68.3249 628.33 69.4 627.792L106.2 607.992L106.2 584.992L66 564.192C59.9 561.05 49.6998 556.199 43.7681 553.587C43.2818 553.373 42.8243 553.174 42.4 552.992L42.4 552.592C42.4568 552.592 42.5139 552.592 42.5714 552.592C43.0173 552.592 43.4859 552.589 43.9747 552.586C48.6081 552.55 55.0588 552.372 61.158 552.204C63.9863 552.127 66.7391 552.051 69.2 551.992L146 549.792L146 518.992L4.80001 523.992L4.80001 557.592L56.2 583.392C64.1347 587.171 70.2849 590.057 75.1562 592.051ZM17.8615 366.79C29.6306 353.9 46.9661 346.464 69.2 346.464C91.7043 346.464 112.099 353.529 126.883 366.436C141.68 379.355 150.8 398.082 150.8 421.264C150.8 444.442 141.932 462.379 127.493 474.505C113.075 486.613 93.1804 492.864 71.2 492.864C49.5466 492.864 31.7258 485.016 19.3221 471.85C6.92479 458.69 6.0783e-06 440.284 6.32896e-06 419.264C6.58397e-06 397.88 6.10406 379.667 17.8615 366.79ZM109.415 389.827C98.0757 383.948 83.7976 381.664 72.2 381.664C60.3203 381.664 47.6731 384.242 38.0312 390.286C28.4372 396.301 21.8 405.748 21.8 419.664C21.8 433.996 28.3018 443.435 37.8269 449.339C47.4105 455.28 60.1032 457.664 72.4 457.664C84.6058 457.664 98.8251 455.427 109.954 449.482C121.035 443.562 129 434.011 129 419.264C129 405.05 120.721 395.689 109.415 389.827ZM130.214 143.322L130.667 143.352C136.993 143.774 141.521 146.801 144.435 151.225C147.324 155.611 148.6 161.322 148.6 167.15C148.6 182.052 140.873 193.616 129.164 202.715C117.658 211.655 102.235 218.28 86.2668 223.457C86.5713 227.134 86.5975 231.051 86.5998 234.55L147 234.55L147 268.75L4.64998 268.75L4.60133 267.801C3.80096 252.194 3.20001 236.775 3.20001 221.15C3.20001 208.2 4.8008 193.859 10.4834 182.672C13.3322 177.064 17.2193 172.224 22.4649 168.762C27.7151 165.298 34.2693 163.252 42.3874 163.15L42.4 163.15C61.1379 163.15 74.6394 176.743 80.92 192.334C90.4513 187.183 102.444 180.097 112.165 172.608C117.198 168.731 121.587 164.772 124.709 160.943C127.852 157.09 129.6 153.503 129.6 150.35C129.6 148.707 129.237 147.229 128.664 145.701L128.438 145.098L130.214 143.322ZM81.2881 193.272C100.725 182.776 130.6 164.138 130.6 150.35C130.6 148.55 130.2 146.95 129.6 145.35L130.6 144.35C142.6 145.15 147.6 155.75 147.6 167.15C147.6 196.15 117.6 212.35 85.2 222.75C85.6 226.95 85.6 231.55 85.6 235.55L146 235.55L146 267.75L5.60001 267.75C4.80001 252.15 4.20001 236.75 4.20001 221.15C4.20001 195.35 10.6 164.55 42.4 164.15C60.6308 164.15 73.866 177.408 80.034 192.812C80.1589 193.124 80.2809 193.436 80.4 193.75C80.6935 193.593 80.9895 193.433 81.2881 193.272ZM61.7274 205.728C58.2048 201.071 52.8094 198.15 45.2 198.15C37.1825 198.15 31.7472 201.126 28.2808 205.842C24.7787 210.607 23.2 217.268 23.2 224.75C23.2 228.002 23.5332 231.266 24.0509 234.55L66.4964 234.55C66.8323 231.11 67 227.814 67 224.35C67 216.987 65.2797 210.425 61.7274 205.728ZM67.4 235.55L23.2 235.55C22.6 231.95 22.2 228.35 22.2 224.75C22.2 209.55 28.6 197.15 45.2 197.15C61 197.15 68 209.35 68 224.35C68 228.15 67.8 231.75 67.4 235.55ZM27.8 34.861L27.8 88.2609L62.6 88.2609L62.6 71.861C62.6 65.0782 62.4005 57.544 62.1011 51.2333C61.7999 44.8821 61.4014 39.8716 61.0215 38.067L60.8975 37.478L62.8493 35.8515L63.226 35.8613C71.0602 36.0648 76.6992 38.0014 80.3743 41.5961C84.0591 45.2001 85.6 50.3038 85.6 56.4609L85.6 88.2609L122.4 88.2609L122.4 64.0609C122.4 57.2781 122.2 49.744 121.901 43.4333C121.6 37.0822 121.201 32.0717 120.821 30.267L120.697 29.678L122.649 28.0515L123.026 28.0613C130.861 28.2648 136.873 30.2007 140.937 33.7861C145.024 37.3926 147 42.5438 147 48.861L147 122.461L3.80001 122.461L3.80001 34.861L27.8 34.861ZM63.2 36.861C78.6 37.2609 84.6 44.4609 84.6 56.4609L84.6 89.2609L123.4 89.2609L123.4 64.0609C123.4 50.4609 122.6 33.8609 121.8 30.0609L123 29.0609C138.4 29.4609 146 36.661 146 48.861L146 121.461L4.80001 121.461L4.80001 35.861L26.8 35.861L26.8 89.2609L63.6 89.2609L63.6 71.861C63.6 58.2609 62.8 41.661 62 37.861L63.2 36.861ZM27.8 -88.5765L27.8 -35.1766L62.6 -35.1766L62.6 -51.5765C62.6 -58.3594 62.4005 -65.8934 62.1011 -72.2042C61.7999 -78.5554 61.4014 -83.5658 61.0215 -85.3706L60.8975 -85.9595L62.8493 -87.5861L63.226 -87.5762C71.0602 -87.3727 76.6992 -85.436 80.3743 -81.8414C84.0591 -78.2373 85.6 -73.1338 85.6 -66.9766L85.6 -35.1766L122.4 -35.1766L122.4 -59.3766C122.4 -66.1593 122.2 -73.6935 121.901 -80.0041C121.6 -86.3553 121.201 -91.3658 120.821 -93.1705L120.697 -93.7595L122.649 -95.386L123.026 -95.3762C130.861 -95.1727 136.873 -93.2368 140.937 -89.6514C145.024 -86.0448 147 -80.8937 147 -74.5765L147 -0.976561L3.80001 -0.976562L3.80002 -88.5765L27.8 -88.5765ZM63.2 -86.5765C78.6 -86.1765 84.6 -78.9766 84.6 -66.9766L84.6 -34.1766L123.4 -34.1766L123.4 -59.3766C123.4 -72.9766 122.6 -89.5765 121.8 -93.3766L123 -94.3766C138.4 -93.9766 146 -86.7766 146 -74.5765L146 -1.97656L4.80001 -1.97656L4.80002 -87.5765L26.8 -87.5765L26.8 -34.1766L63.6 -34.1766L63.6 -51.5765C63.6 -65.1765 62.8 -81.7766 62 -85.5765L63.2 -86.5765ZM122.649 -214.823L123.026 -214.814C130.861 -214.61 136.871 -212.674 140.934 -209.116C145.021 -205.537 147 -200.436 147 -194.214L147 -124.414L3.80002 -124.414L3.80002 -158.614L122.4 -158.614L122.4 -178.814C122.4 -185.597 122.2 -193.131 121.901 -199.442C121.6 -205.793 121.201 -210.803 120.821 -212.608L120.697 -213.197L122.649 -214.823ZM121.8 -212.814L123 -213.814C138.4 -213.414 146 -206.214 146 -194.214L146 -125.414L4.80002 -125.414L4.80002 -157.614L123.4 -157.614L123.4 -178.814C123.4 -192.414 122.6 -209.014 121.8 -212.814ZM1.00001 419.264C1.00001 376.864 25.2 347.464 69.2 347.464C113.8 347.464 149.8 375.464 149.8 421.264C149.8 467.064 114.8 491.864 71.2 491.864C28.4 491.864 1.00001 460.864 1.00001 419.264ZM130 419.264C130 389.864 95.6 380.664 72.2 380.664C48.2 380.664 20.8 391.064 20.8 419.664C20.8 449.064 47.6 458.664 72.4 458.664C97 458.664 130 449.664 130 419.264Z" fill="white" fill-opacity="0.5"/>
</svg>
