<svg viewBox="0 0 925 259" fill="none" xmlns="http://www.w3.org/2000/svg">
<mask id="mask0_101_1345" style="mask-type:alpha" maskUnits="userSpaceOnUse" x="14" y="73" width="909" height="143">
<path d="M148.4 216V74.8H123.6L123.6 169.6H123C118.6 160.6 111.4 150 104 140.2L64.2 89.6C55.8 78.6 47.4 73 35.4 73C23.4 73 14 79.6 14 91.4L15.2 92.6C16.4 92 17.8 91.6 19.2 91.6C24.4 91.6 26.2 95.6 26.2 100.2L26.2 216H51L51 122.8H51.6C56 130.4 61 138 67.4 146L123.4 216H148.4ZM307.159 216L256.159 74.6H219.359L170.159 216H196.159L210.159 174.6L257.759 174.6L271.959 216H307.159ZM251.359 154.4L216.359 154.4L226.359 124.6C229.559 114.6 232.359 104.2 233.359 99.4H233.959C234.959 104 237.559 114.2 240.959 124.2L251.359 154.4ZM454.789 216V74.8H422.389V129.2H360.989V74.8L328.789 74.8V216H360.989V151.2H422.389V216H454.789ZM613.605 216L562.605 74.6H525.805L476.605 216H502.605L516.605 174.6H564.205L578.405 216H613.605ZM557.805 154.4H522.805L532.805 124.6C536.005 114.6 538.805 104.2 539.805 99.4H540.405C541.405 104 544.005 114.2 547.405 124.2L557.805 154.4ZM763.634 216V74.8H738.834V169.6H738.234C733.834 160.6 726.634 150 719.234 140.2L679.434 89.6C671.034 78.6 662.634 73 650.634 73C638.634 73 629.234 79.6 629.234 91.4L630.434 92.6C631.634 92 633.034 91.6 634.434 91.6C639.634 91.6 641.434 95.6 641.434 100.2V216H666.234V122.8H666.834C671.234 130.4 676.234 138 682.634 146L738.634 216H763.634ZM922.394 216L871.394 74.6H834.594L785.394 216H811.394L825.394 174.6H872.994L887.194 216H922.394ZM866.594 154.4H831.594L841.594 124.6C844.794 114.6 847.594 104.2 848.594 99.4H849.194C850.194 104 852.794 114.2 856.194 124.2L866.594 154.4Z" fill="#C4C4C4"/>
</mask>
<g mask="url(#mask0_101_1345)">
<path d="M491 12L256 247H-672V12H491Z" fill="white" class="title_animate" />
</g>
<mask id="mask1_101_1345" style="mask-type:alpha" maskUnits="userSpaceOnUse" x="14" y="73" width="909" height="143">
<path d="M148.4 216V217H149.4V216H148.4ZM148.4 74.8H149.4V73.8H148.4V74.8ZM123.6 74.8V73.8H122.6V74.8H123.6ZM123.6 169.6V170.6H124.6V169.6H123.6ZM123 169.6L122.102 170.039L122.376 170.6H123V169.6ZM104 140.2L104.798 139.597L104.792 139.59L104.786 139.582L104 140.2ZM64.2 89.6L63.4052 90.2069L63.4096 90.2126L63.414 90.2182L64.2 89.6ZM14 91.4H13V91.8142L13.2929 92.1071L14 91.4ZM15.2 92.6L14.4929 93.3071L15.0025 93.8167L15.6472 93.4944L15.2 92.6ZM26.2 216H25.2V217H26.2V216ZM51 216V217H52V216H51ZM51 122.8V121.8H50V122.8H51ZM51.6 122.8L52.4654 122.299L52.1766 121.8H51.6V122.8ZM67.4 146L68.1809 145.375L67.4 146ZM123.4 216L122.619 216.625L122.919 217H123.4V216ZM149.4 216V74.8H147.4V216H149.4ZM148.4 73.8H123.6V75.8H148.4V73.8ZM122.6 74.8L122.6 169.6H124.6L124.6 74.8H122.6ZM123.6 168.6H123V170.6H123.6V168.6ZM123.898 169.161C119.456 160.073 112.21 149.413 104.798 139.597L103.202 140.803C110.59 150.587 117.744 161.127 122.102 170.039L123.898 169.161ZM104.786 139.582L64.986 88.9818L63.414 90.2182L103.214 140.818L104.786 139.582ZM64.9948 88.9931C60.7511 83.4358 56.4608 79.1798 51.6625 76.3163C46.8484 73.4434 41.5696 72 35.4 72V74C41.2304 74 46.1516 75.3566 50.6375 78.0337C55.1392 80.7202 59.2489 84.7641 63.4052 90.2069L64.9948 88.9931ZM35.4 72C29.227 72 23.6374 73.697 19.5698 76.9986C15.4792 80.3188 13 85.2074 13 91.4H15C15 85.7926 17.2208 81.4811 20.8302 78.5514C24.4626 75.603 29.573 74 35.4 74V72ZM13.2929 92.1071L14.4929 93.3071L15.9071 91.8929L14.7071 90.6929L13.2929 92.1071ZM15.6472 93.4944C16.7364 92.9498 17.9838 92.6 19.2 92.6V90.6C17.6162 90.6 16.0636 91.0501 14.7528 91.7056L15.6472 93.4944ZM19.2 92.6C21.5035 92.6 22.9339 93.4642 23.8302 94.7476C24.7663 96.088 25.2 98.0048 25.2 100.2H27.2C27.2 97.7952 26.7337 95.412 25.4698 93.6024C24.1661 91.7357 22.0965 90.6 19.2 90.6V92.6ZM25.2 100.2L25.2 216H27.2L27.2 100.2H25.2ZM26.2 217H51V215H26.2V217ZM52 216L52 122.8H50L50 216H52ZM51 123.8H51.6V121.8H51V123.8ZM50.7346 123.301C55.1556 130.937 60.1832 138.58 66.6191 146.625L68.1809 145.375C61.8168 137.42 56.8444 129.863 52.4654 122.299L50.7346 123.301ZM66.6191 146.625L122.619 216.625L124.181 215.375L68.1809 145.375L66.6191 146.625ZM123.4 217H148.4V215H123.4V217ZM307.159 216V217H308.583L308.1 215.661L307.159 216ZM256.159 74.6L257.1 74.2607L256.862 73.6H256.159V74.6ZM219.359 74.6V73.6H218.649L218.415 74.2714L219.359 74.6ZM170.159 216L169.215 215.671L168.753 217H170.159V216ZM196.159 216V217H196.877L197.107 216.32L196.159 216ZM210.159 174.6V173.6H209.442L209.212 174.28L210.159 174.6ZM257.759 174.6L258.705 174.276L258.474 173.6H257.759V174.6ZM271.959 216L271.013 216.324L271.245 217H271.959V216ZM251.359 154.4V155.4H252.761L252.305 154.074L251.359 154.4ZM216.359 154.4L215.411 154.082L214.969 155.4H216.359V154.4ZM226.359 124.6L227.308 124.918L227.312 124.905L226.359 124.6ZM233.359 99.4V98.4H232.546L232.38 99.196L233.359 99.4ZM233.959 99.4L234.937 99.1876L234.765 98.4H233.959V99.4ZM240.959 124.2L240.013 124.522L240.014 124.526L240.959 124.2ZM308.1 215.661L257.1 74.2607L255.219 74.9393L306.219 216.339L308.1 215.661ZM256.159 73.6H219.359V75.6H256.159V73.6ZM218.415 74.2714L169.215 215.671L171.104 216.329L220.304 74.9286L218.415 74.2714ZM170.159 217H196.159V215H170.159V217ZM197.107 216.32L211.107 174.92L209.212 174.28L195.212 215.68L197.107 216.32ZM210.159 175.6L257.759 175.6V173.6L210.159 173.6V175.6ZM256.813 174.924L271.013 216.324L272.905 215.676L258.705 174.276L256.813 174.924ZM271.959 217H307.159V215H271.959V217ZM251.359 153.4L216.359 153.4V155.4L251.359 155.4V153.4ZM217.307 154.718L227.307 124.918L225.411 124.282L215.411 154.082L217.307 154.718ZM227.312 124.905C230.517 114.887 233.329 104.451 234.338 99.604L232.38 99.196C231.39 103.949 228.601 114.313 225.407 124.295L227.312 124.905ZM233.359 100.4H233.959V98.4H233.359V100.4ZM232.982 99.6124C233.989 104.245 236.599 114.482 240.013 124.522L241.906 123.878C238.52 113.918 235.929 103.755 234.937 99.1876L232.982 99.6124ZM240.014 124.526L250.414 154.726L252.305 154.074L241.905 123.874L240.014 124.526ZM454.789 216V217H455.789V216H454.789ZM454.789 74.8H455.789V73.8H454.789V74.8ZM422.389 74.8V73.8H421.389V74.8H422.389ZM422.389 129.2V130.2H423.389V129.2H422.389ZM360.989 129.2H359.989V130.2H360.989V129.2ZM360.989 74.8H361.989V73.8H360.989V74.8ZM328.789 74.8V73.8H327.789V74.8H328.789ZM328.789 216H327.789V217H328.789V216ZM360.989 216V217H361.989V216H360.989ZM360.989 151.2V150.2H359.989V151.2H360.989ZM422.389 151.2H423.389V150.2H422.389V151.2ZM422.389 216H421.389V217H422.389V216ZM455.789 216V74.8H453.789V216H455.789ZM454.789 73.8H422.389V75.8H454.789V73.8ZM421.389 74.8V129.2H423.389V74.8H421.389ZM422.389 128.2H360.989V130.2H422.389V128.2ZM361.989 129.2V74.8H359.989V129.2H361.989ZM360.989 73.8L328.789 73.8V75.8L360.989 75.8V73.8ZM327.789 74.8V216H329.789V74.8H327.789ZM328.789 217H360.989V215H328.789V217ZM361.989 216V151.2H359.989V216H361.989ZM360.989 152.2H422.389V150.2H360.989V152.2ZM421.389 151.2V216H423.389V151.2H421.389ZM422.389 217H454.789V215H422.389V217ZM613.605 216V217H615.028L614.545 215.661L613.605 216ZM562.605 74.6L563.545 74.2607L563.307 73.6H562.605V74.6ZM525.805 74.6V73.6H525.094L524.86 74.2714L525.805 74.6ZM476.605 216L475.66 215.671L475.198 217H476.605V216ZM502.605 216V217H503.322L503.552 216.32L502.605 216ZM516.605 174.6V173.6H515.887L515.657 174.28L516.605 174.6ZM564.205 174.6L565.151 174.276L564.919 173.6H564.205V174.6ZM578.405 216L577.459 216.324L577.69 217H578.405V216ZM557.805 154.4V155.4H559.207L558.75 154.074L557.805 154.4ZM522.805 154.4L521.857 154.082L521.414 155.4H522.805V154.4ZM532.805 124.6L533.753 124.918L533.757 124.905L532.805 124.6ZM539.805 99.4V98.4H538.992L538.826 99.196L539.805 99.4ZM540.405 99.4L541.382 99.1876L541.211 98.4H540.405V99.4ZM547.405 124.2L546.458 124.522L546.459 124.526L547.405 124.2ZM614.545 215.661L563.545 74.2607L561.664 74.9393L612.664 216.339L614.545 215.661ZM562.605 73.6H525.805V75.6H562.605V73.6ZM524.86 74.2714L475.66 215.671L477.549 216.329L526.749 74.9286L524.86 74.2714ZM476.605 217H502.605V215H476.605V217ZM503.552 216.32L517.552 174.92L515.657 174.28L501.657 215.68L503.552 216.32ZM516.605 175.6H564.205V173.6H516.605V175.6ZM563.259 174.924L577.459 216.324L579.351 215.676L565.151 174.276L563.259 174.924ZM578.405 217H613.605V215H578.405V217ZM557.805 153.4H522.805V155.4H557.805V153.4ZM523.753 154.718L533.753 124.918L531.857 124.282L521.857 154.082L523.753 154.718ZM533.757 124.905C536.963 114.887 539.774 104.451 540.784 99.604L538.826 99.196C537.836 103.949 535.047 114.313 531.852 124.295L533.757 124.905ZM539.805 100.4H540.405V98.4H539.805V100.4ZM539.427 99.6124C540.435 104.245 543.044 114.482 546.458 124.522L548.351 123.878C544.965 113.918 542.375 103.755 541.382 99.1876L539.427 99.6124ZM546.459 124.526L556.859 154.726L558.75 154.074L548.35 123.874L546.459 124.526ZM763.634 216V217H764.634V216H763.634ZM763.634 74.8H764.634V73.8H763.634V74.8ZM738.834 74.8V73.8H737.834V74.8H738.834ZM738.834 169.6V170.6H739.834V169.6H738.834ZM738.234 169.6L737.336 170.039L737.61 170.6H738.234V169.6ZM719.234 140.2L720.032 139.597L720.026 139.59L720.02 139.582L719.234 140.2ZM679.434 89.6L678.64 90.2069L678.644 90.2126L678.648 90.2182L679.434 89.6ZM629.234 91.4H628.234V91.8142L628.527 92.1071L629.234 91.4ZM630.434 92.6L629.727 93.3071L630.237 93.8167L630.882 93.4944L630.434 92.6ZM641.434 216H640.434V217H641.434V216ZM666.234 216V217H667.234V216H666.234ZM666.234 122.8V121.8H665.234V122.8H666.234ZM666.834 122.8L667.7 122.299L667.411 121.8H666.834V122.8ZM682.634 146L683.415 145.375L682.634 146ZM738.634 216L737.854 216.625L738.154 217H738.634V216ZM764.634 216V74.8H762.634V216H764.634ZM763.634 73.8H738.834V75.8H763.634V73.8ZM737.834 74.8V169.6H739.834V74.8H737.834ZM738.834 168.6H738.234V170.6H738.834V168.6ZM739.133 169.161C734.69 160.073 727.444 149.413 720.032 139.597L718.436 140.803C725.825 150.587 732.979 161.127 737.336 170.039L739.133 169.161ZM720.02 139.582L680.22 88.9818L678.648 90.2182L718.448 140.818L720.02 139.582ZM680.229 88.9931C675.985 83.4358 671.695 79.1798 666.897 76.3163C662.083 73.4434 656.804 72 650.634 72V74C656.465 74 661.386 75.3566 665.872 78.0337C670.374 80.7202 674.483 84.7641 678.64 90.2069L680.229 88.9931ZM650.634 72C644.461 72 638.872 73.697 634.804 76.9986C630.714 80.3188 628.234 85.2074 628.234 91.4H630.234C630.234 85.7926 632.455 81.4811 636.065 78.5514C639.697 75.603 644.807 74 650.634 74V72ZM628.527 92.1071L629.727 93.3071L631.141 91.8929L629.941 90.6929L628.527 92.1071ZM630.882 93.4944C631.971 92.9498 633.218 92.6 634.434 92.6V90.6C632.851 90.6 631.298 91.0501 629.987 91.7056L630.882 93.4944ZM634.434 92.6C636.738 92.6 638.168 93.4642 639.065 94.7476C640.001 96.088 640.434 98.0048 640.434 100.2H642.434C642.434 97.7952 641.968 95.412 640.704 93.6024C639.401 91.7357 637.331 90.6 634.434 90.6V92.6ZM640.434 100.2V216H642.434V100.2H640.434ZM641.434 217H666.234V215H641.434V217ZM667.234 216V122.8H665.234V216H667.234ZM666.234 123.8H666.834V121.8H666.234V123.8ZM665.969 123.301C670.39 130.937 675.418 138.58 681.854 146.625L683.415 145.375C677.051 137.42 672.079 129.863 667.7 122.299L665.969 123.301ZM681.854 146.625L737.854 216.625L739.415 215.375L683.415 145.375L681.854 146.625ZM738.634 217H763.634V215H738.634V217ZM922.394 216V217H923.818L923.334 215.661L922.394 216ZM871.394 74.6L872.334 74.2607L872.096 73.6H871.394V74.6ZM834.594 74.6V73.6H833.883L833.649 74.2714L834.594 74.6ZM785.394 216L784.449 215.671L783.987 217H785.394V216ZM811.394 216V217H812.111L812.341 216.32L811.394 216ZM825.394 174.6V173.6H824.676L824.446 174.28L825.394 174.6ZM872.994 174.6L873.94 174.276L873.708 173.6H872.994V174.6ZM887.194 216L886.248 216.324L886.48 217H887.194V216ZM866.594 154.4V155.4H867.996L867.539 154.074L866.594 154.4ZM831.594 154.4L830.646 154.082L830.203 155.4H831.594V154.4ZM841.594 124.6L842.542 124.918L842.546 124.905L841.594 124.6ZM848.594 99.4V98.4H847.781L847.615 99.196L848.594 99.4ZM849.194 99.4L850.171 99.1876L850 98.4H849.194V99.4ZM856.194 124.2L855.247 124.522L855.248 124.526L856.194 124.2ZM923.334 215.661L872.334 74.2607L870.453 74.9393L921.453 216.339L923.334 215.661ZM871.394 73.6H834.594V75.6H871.394V73.6ZM833.649 74.2714L784.449 215.671L786.338 216.329L835.538 74.9286L833.649 74.2714ZM785.394 217H811.394V215H785.394V217ZM812.341 216.32L826.341 174.92L824.446 174.28L810.446 215.68L812.341 216.32ZM825.394 175.6H872.994V173.6H825.394V175.6ZM872.048 174.924L886.248 216.324L888.14 215.676L873.94 174.276L872.048 174.924ZM887.194 217H922.394V215H887.194V217ZM866.594 153.4H831.594V155.4H866.594V153.4ZM832.542 154.718L842.542 124.918L840.646 124.282L830.646 154.082L832.542 154.718ZM842.546 124.905C845.752 114.887 848.563 104.451 849.573 99.604L847.615 99.196C846.625 103.949 843.836 114.313 840.641 124.295L842.546 124.905ZM848.594 100.4H849.194V98.4H848.594V100.4ZM848.217 99.6124C849.224 104.245 851.833 114.482 855.247 124.522L857.141 123.878C853.754 113.918 851.164 103.755 850.171 99.1876L848.217 99.6124ZM855.248 124.526L865.648 154.726L867.539 154.074L857.139 123.874L855.248 124.526Z" fill="white" fill-opacity="0.5"/>
</mask>
<g mask="url(#mask1_101_1345)" >
<path d="M221 299L465 55H1375V299H221Z" fill="white" class="title_animate" />
</g>
<line x1="269.646" y1="241.646" x2="467.646" y2="43.6465" stroke="white" class="title_animate" />
</svg>
