<svg width="135" height="953" viewBox="0 0 135 953" fill="none" xmlns="http://www.w3.org/2000/svg">
<path fill-rule="evenodd" clip-rule="evenodd" d="M4.64703 953L4.60117 952.048C3.8008 935.441 3.2 918.623 3.2 901.8C3.2 887.616 5.60902 873.791 12.2597 863.483C18.9561 853.103 29.8835 846.4 46.6 846.4C74.1731 846.4 96.8 870.069 96.8 897.2C96.8 903.226 95.4746 908.159 92.3968 911.615C89.302 915.09 84.5931 916.897 78.2161 917L77.7925 917.007L76.129 915.343L76.2136 914.836C76.5978 912.531 76.6 910.213 76.6 907.8C76.6 899.443 73.6913 892.767 68.8379 888.177C63.9775 883.58 57.0873 881 49 881C40.5286 881 34.1172 883.768 29.8148 888.498C25.4999 893.242 23.2 900.077 23.2 908.4C23.2 911.852 23.5363 915.317 24.0579 918.8L147 918.8L147 953L4.64703 953ZM23.2 919.8C22.6 916 22.2 912.2 22.2 908.4C22.2 891.4 31.6 880 49 880C65.6 880 77.6 890.6 77.6 907.8C77.6 910.2 77.6 912.6 77.2 915L78.2 916C90.6 915.8 95.8 909 95.8 897.2C95.8 870.6 73.6 847.4 46.6 847.4C13.8 847.4 4.2 873.6 4.2 901.8C4.2 918.6 4.8 935.4 5.60001 952L146 952L146 919.8L23.2 919.8ZM130.214 695.15L130.667 695.18C136.993 695.602 141.521 698.629 144.435 703.053C147.324 707.44 148.6 713.15 148.6 718.978C148.6 733.88 140.873 745.444 129.164 754.543C117.658 763.483 102.235 770.108 86.2668 775.285C86.5713 778.962 86.5975 782.879 86.5998 786.378L147 786.378L147 820.578L4.64997 820.578L4.60132 819.629C3.80095 804.022 3.2 788.603 3.2 772.978C3.2 760.028 4.80079 745.687 10.4834 734.5C13.3322 728.892 17.2193 724.052 22.4649 720.59C27.7151 717.126 34.2693 715.08 42.3874 714.978L42.4 714.978C61.1379 714.978 74.6394 728.571 80.9199 744.163C90.4512 739.011 102.444 731.925 112.165 724.436C117.198 720.559 121.587 716.6 124.709 712.771C127.852 708.918 129.6 705.331 129.6 702.178C129.6 700.535 129.237 699.058 128.664 697.529L128.438 696.926L130.214 695.15ZM81.2881 745.1C100.725 734.604 130.6 715.966 130.6 702.178C130.6 700.378 130.2 698.778 129.6 697.178L130.6 696.178C142.6 696.978 147.6 707.578 147.6 718.978C147.6 747.978 117.6 764.178 85.2 774.578C85.6 778.778 85.6 783.378 85.6 787.378L146 787.378L146 819.578L5.60001 819.578C4.8 803.978 4.2 788.578 4.2 772.978C4.2 747.178 10.6 716.378 42.4 715.978C60.6308 715.978 73.866 729.236 80.034 744.64C80.1589 744.952 80.2809 745.264 80.4 745.578C80.6935 745.421 80.9895 745.262 81.2881 745.1ZM61.7274 757.556C58.2048 752.899 52.8094 749.978 45.2 749.978C37.1825 749.978 31.7472 752.954 28.2808 757.67C24.7787 762.435 23.2 769.096 23.2 776.578C23.2 779.83 23.5331 783.094 24.0509 786.378L66.4963 786.378C66.8323 782.938 67 779.642 67 776.178C67 768.816 65.2797 762.253 61.7274 757.556ZM67.4 787.378L23.2 787.378C22.6 783.778 22.2 780.178 22.2 776.578C22.2 761.378 28.6 748.978 45.2 748.978C61 748.978 68 761.178 68 776.178C68 779.978 67.8 783.578 67.4 787.378ZM17.8615 564.321C29.6306 551.431 46.9661 543.995 69.2 543.995C91.7043 543.995 112.099 551.06 126.883 563.967C141.68 576.886 150.8 595.613 150.8 618.795C150.8 641.974 141.932 659.91 127.493 672.036C113.075 684.144 93.1804 690.395 71.2 690.395C49.5466 690.395 31.7258 682.547 19.3221 669.381C6.92479 656.222 3.75854e-06 637.815 4.0092e-06 616.795C4.26421e-06 595.411 6.10406 577.198 17.8615 564.321ZM109.415 587.358C98.0756 581.479 83.7976 579.195 72.2 579.195C60.3203 579.195 47.6731 581.773 38.0312 587.818C28.4372 593.832 21.8 603.28 21.8 617.195C21.8 631.527 28.3018 640.966 37.8269 646.87C47.4105 652.811 60.1032 655.195 72.4 655.195C84.6058 655.195 98.8251 652.958 109.954 647.013C121.035 641.094 129 631.542 129 616.795C129 602.581 120.721 593.22 109.415 587.358ZM3.80001 462.689L92.2 462.689C109.906 462.689 124.458 468.155 134.596 477.322C144.739 486.495 150.4 499.318 150.4 513.889C150.4 520.753 148.607 526.503 145.217 530.556C141.809 534.629 136.867 536.889 130.8 536.889L130.742 536.889C129.38 536.889 127.518 536.889 126.236 536.675L125.808 536.604L124.431 534.539L124.724 534.007C126.819 530.197 127.8 525.377 127.8 520.089C127.8 511.548 124.91 505.948 119.62 502.421C114.246 498.838 106.241 497.289 95.8 497.289L27.8 497.289L27.8 534.489L3.80001 534.489L3.80001 462.689ZM125.6 534.489C127.8 530.489 128.8 525.489 128.8 520.089C128.8 502.489 116.8 496.289 95.8 496.289L26.8 496.289L26.8 533.489L4.80001 533.489L4.80001 463.689L92.2 463.689C127.2 463.689 149.4 485.289 149.4 513.889C149.4 527.289 142.4 535.889 130.8 535.889C129.4 535.889 127.6 535.889 126.4 535.689L125.6 534.489ZM27.8 340.009L27.8 393.409L62.6 393.409L62.6 377.009C62.6 370.227 62.4005 362.692 62.1011 356.382C61.7999 350.031 61.4014 345.02 61.0215 343.215L60.8975 342.626L62.8493 341L63.226 341.01C71.0602 341.213 76.6992 343.15 80.3743 346.745C84.0591 350.349 85.6 355.452 85.6 361.609L85.6 393.409L122.4 393.409L122.4 369.209C122.4 362.427 122.2 354.892 121.901 348.582C121.6 342.231 121.201 337.22 120.821 335.415L120.697 334.826L122.649 333.2L123.026 333.21C130.861 333.413 136.873 335.349 140.937 338.935C145.024 342.541 147 347.692 147 354.009L147 427.609L3.80001 427.609L3.80001 340.009L27.8 340.009ZM63.2 342.009C78.6 342.409 84.6 349.609 84.6 361.609L84.6 394.409L123.4 394.409L123.4 369.209C123.4 355.609 122.6 339.009 121.8 335.209L123 334.209C138.4 334.609 146 341.809 146 354.009L146 426.609L4.80001 426.609L4.80001 341.009L26.8 341.009L26.8 394.409L63.6 394.409L63.6 377.009C63.6 363.409 62.8 346.809 62 343.009L63.2 342.009ZM121.669 197.846L122.036 197.785C123.317 197.572 124.785 197.572 125.958 197.572L126 197.572C131.036 197.572 135.114 198.899 138.381 201.177C141.64 203.448 144.033 206.623 145.776 210.238C149.248 217.44 150.2 226.52 150.2 234.172C150.2 257.377 142.934 277.93 129.541 292.694C116.137 307.469 96.66 316.372 72.4 316.372C48.2299 316.372 30.5777 307.509 18.9924 292.944C7.43375 278.414 2.00001 258.318 2.00001 235.972C2.00001 224.339 2.60154 212.684 4.41225 201.216L4.56612 200.241L30.3271 203.953L29.9487 205.088C26.9911 213.961 25.8 223.849 25.8 233.172C25.8 248.618 29.6614 260.586 37.2308 268.689C44.7892 276.781 56.1895 281.172 71.6 281.172C87.5707 281.172 101.36 275.753 111.152 266.206C120.94 256.662 126.8 242.93 126.8 226.172C126.8 217.464 125.212 207.889 120.365 200.521L119.957 199.902L121.669 197.846ZM122.2 198.772L121.2 199.972C126.2 207.572 127.8 217.372 127.8 226.172C127.8 260.172 104 282.172 71.6 282.172C40.4 282.172 24.8 264.372 24.8 233.172C24.8 224.107 25.9161 214.483 28.6863 205.737C28.7886 205.414 28.8932 205.092 29 204.772L5.40218 201.372L5.40002 201.372C5.40005 201.372 5.39999 201.372 5.40002 201.372C3.60009 212.772 3.00001 224.372 3.00001 235.972C3.00001 280.372 24.6 315.372 72.4 315.372C120.4 315.372 149.2 280.172 149.2 234.172C149.2 218.972 145.4 198.572 126 198.572C124.8 198.572 123.4 198.572 122.2 198.772ZM4.0493 69.303L4.42598 69.3128C12.261 69.5164 18.1313 71.4526 22.0487 75.0234C25.986 78.6126 27.8 83.7145 27.8 89.9125L27.8 114.713L147 114.713L147 149.313L27.8 149.313L27.8 189.912L3.80001 189.912L3.80001 105.313C3.80001 98.5297 3.60046 90.9956 3.30113 84.6849C2.99989 78.3337 2.6014 73.3232 2.22146 71.5185L2.09747 70.9296L4.0493 69.303ZM3.20001 71.3125L4.40002 70.3125C19.8 70.7125 26.8 77.9125 26.8 89.9125L26.8 115.713L146 115.713L146 148.313L26.8 148.313L26.8 188.912L4.80001 188.912L4.80001 105.313C4.80001 91.7125 4.00001 75.1125 3.20001 71.3125ZM27.6761 -13.5123C25.5892 -7.17426 23.6 1.51788 23.6 9.125C23.6 26.525 31.8 32.725 39.8 32.725C50.9229 32.725 56.7199 21.4814 63.2638 8.78912L63.4 8.52503C73 -10.275 83.4 -23.875 104.6 -23.875C123.6 -23.875 149.2 -10.875 149.2 30.125C149.2 45.725 145.8 65.325 126.2 65.325C124.8 65.325 123.4 65.325 122.4 65.125L121.4 63.725C126.4 56.325 128.8 44.925 128.8 34.925C128.8 19.525 121.8 8.52503 110 8.52503C99.8 8.52503 95 16.925 87.2 31.925C77.2 51.325 67 63.925 46.4 63.925C23.6 63.925 3.00001 44.725 3.00001 8.92499C3.00001 -0.875 3.80001 -9.875 5.20001 -17.875L28 -14.475C27.892 -14.1606 27.7839 -13.8396 27.6761 -13.5123ZM88.0886 32.3837C83.0762 42.1078 77.9561 50.2485 71.4333 55.9528C64.871 61.6915 56.9354 64.925 46.4 64.925C34.7077 64.925 23.5818 59.9973 15.3928 50.5031C7.20697 41.0128 2.00001 27.0159 2.00001 8.92499C2.00001 -0.92865 2.80434 -9.98657 4.21498 -18.0474L4.38307 -19.0079L29.3365 -15.2867L28.9457 -14.1499C26.7657 -7.80817 24.6 1.27582 24.6 9.125C24.6 17.6796 26.6164 23.3267 29.4737 26.8165C32.3163 30.2881 36.0711 31.725 39.8 31.725C44.9956 31.725 48.9891 29.1049 52.554 24.7882C56.1092 20.4833 59.1326 14.6194 62.4099 8.26325L62.5094 8.07025C62.5097 8.06958 62.5101 8.06897 62.5104 8.0683C67.3221 -1.35449 72.3904 -9.59296 78.9846 -15.4714C85.6168 -21.3839 93.7533 -24.875 104.6 -24.875C114.313 -24.875 125.725 -21.5543 134.715 -12.9734C143.724 -4.3753 150.2 9.40589 150.2 30.125C150.2 37.9638 149.352 46.9501 145.951 54.009C144.243 57.5539 141.877 60.6448 138.623 62.8469C135.363 65.0533 131.275 66.325 126.2 66.325L126.121 66.325C124.781 66.3251 123.302 66.3252 122.204 66.1056L121.816 66.028L120.182 63.7408L120.571 63.1652C125.419 55.9911 127.8 44.8139 127.8 34.925C127.8 27.3608 126.079 20.9781 123.002 16.5178C119.947 12.0897 115.543 9.52503 110 9.52503C105.25 9.52503 101.759 11.4493 98.4552 15.2555C95.0985 19.123 92.0029 24.8563 88.0886 32.3837ZM1 616.795C1 574.395 25.2 544.995 69.2 544.995C113.8 544.995 149.8 572.995 149.8 618.795C149.8 664.595 114.8 689.395 71.2 689.395C28.4 689.395 1 658.395 1 616.795ZM130 616.795C130 587.395 95.6 578.195 72.2 578.195C48.2 578.195 20.8 588.595 20.8 617.195C20.8 646.595 47.6 656.195 72.4 656.195C97 656.195 130 647.195 130 616.795Z" fill="white" fill-opacity="0.5"/>
</svg>
