<?xml version="1.0" encoding="utf-8"?>

<svg 
version="1.1" 
xmlns="http://www.w3.org/2000/svg" 
viewBox="0 0 1920 1080"
preserveAspectRatio="none"
>
<polygon class="st0" points="86,0 0,150 172,150 "/>
<polygon class="st1" points="258,0 172,150 344,150 "/>
<polygon class="st1" points="430,0 344,150 516,150 "/>
<polygon class="st1" points="602,0 516,150 688,150 "/>
<polygon class="st0" points="774,0 688,150 860,150 "/>
<polygon class="st0" points="946,0 860,150 1032,150 "/>
<polygon class="st0" points="1118,0 1032,150 1204,150 "/>
<polygon class="st0" points="1290,0 1204,150 1376,150 "/>
<polygon class="st2" points="1462,0 1376,150 1548,150 "/>
<polygon class="st0" points="1634,0 1548,150 1720,150 "/>
<polygon class="st0" points="1806,0 1720,150 1892,150 "/>
<polygon class="st0" points="1978,0 1892,150 2064,150 "/>
<polygon class="st2" points="0,150 86,0 -86,0 "/>
<polygon class="st2" points="172,150 258,0 86,0 "/>
<polygon class="st0" points="344,150 430,0 258,0 "/>
<polygon class="st1" points="516,150 602,0 430,0 "/>
<polygon class="st0" points="688,150 774,0 602,0 "/>
<polygon class="st0" points="860,150 946,0 774,0 "/>
<polygon class="st1" points="1032,150 1118,0 946,0 "/>
<polygon class="st0" points="1204,150 1290,0 1118,0 "/>
<polygon class="st0" points="1376,150 1462,0 1290,0 "/>
<polygon class="st1" points="1548,150 1634,0 1462,0 "/>
<polygon class="st2" points="1720,150 1806,0 1634,0 "/>
<polygon class="st1" points="1892,150 1978,0 1806,0 "/>
<polygon class="st2" points="86,300 0,150 172,150 "/>
<polygon class="st2" points="258,300 172,150 344,150 "/>
<polygon class="st1" points="430,300 344,150 516,150 "/>
<polygon class="st1" points="602,300 516,150 688,150 "/>
<polygon class="st0" points="774,300 688,150 860,150 "/>
<polygon class="st1" points="946,300 860,150 1032,150 "/>
<polygon class="st1" points="1118,300 1032,150 1204,150 "/>
<polygon class="st0" points="1290,300 1204,150 1376,150 "/>
<polygon class="st1" points="1462,300 1376,150 1548,150 "/>
<polygon class="st2" points="1634,300 1548,150 1720,150 "/>
<polygon class="st0" points="1806,300 1720,150 1892,150 "/>
<polygon class="st0" points="1978,300 1892,150 2064,150 "/>
<polygon class="st2" points="0,150 86,300 -86,300 "/>
<polygon class="st1" points="172,150 258,300 86,300 "/>
<polygon class="st1" points="344,150 430,300 258,300 "/>
<polygon class="st0" points="516,150 602,300 430,300 "/>
<polygon class="st0" points="688,150 774,300 602,300 "/>
<polygon class="st0" points="860,150 946,300 774,300 "/>
<polygon class="st2" points="1032,150 1118,300 946,300 "/>
<polygon class="st0" points="1204,150 1290,300 1118,300 "/>
<polygon class="st2" points="1376,150 1462,300 1290,300 "/>
<polygon class="st1" points="1548,150 1634,300 1462,300 "/>
<polygon class="st0" points="1720,150 1806,300 1634,300 "/>
<polygon class="st0" points="1892,150 1978,300 1806,300 "/>
<polygon class="st1" points="86,300 0,450 172,450 "/>
<polygon class="st0" points="258,300 172,450 344,450 "/>
<polygon class="st2" points="430,300 344,450 516,450 "/>
<polygon class="st2" points="602,300 516,450 688,450 "/>
<polygon class="st0" points="774,300 688,450 860,450 "/>
<polygon class="st2" points="946,300 860,450 1032,450 "/>
<polygon class="st0" points="1118,300 1032,450 1204,450 "/>
<polygon class="st1" points="1290,300 1204,450 1376,450 "/>
<polygon class="st0" points="1462,300 1376,450 1548,450 "/>
<polygon class="st1" points="1634,300 1548,450 1720,450 "/>
<polygon class="st2" points="1806,300 1720,450 1892,450 "/>
<polygon class="st0" points="1978,300 1892,450 2064,450 "/>
<polygon class="st0" points="0,450 86,300 -86,300 "/>
<polygon class="st1" points="172,450 258,300 86,300 "/>
<polygon class="st2" points="344,450 430,300 258,300 "/>
<polygon class="st1" points="516,450 602,300 430,300 "/>
<polygon class="st0" points="688,450 774,300 602,300 "/>
<polygon class="st1" points="860,450 946,300 774,300 "/>
<polygon class="st2" points="1032,450 1118,300 946,300 "/>
<polygon class="st0" points="1204,450 1290,300 1118,300 "/>
<polygon class="st0" points="1376,450 1462,300 1290,300 "/>
<polygon class="st0" points="1548,450 1634,300 1462,300 "/>
<polygon class="st2" points="1720,450 1806,300 1634,300 "/>
<polygon class="st0" points="1892,450 1978,300 1806,300 "/>
<polygon class="st0" points="86,600 0,450 172,450 "/>
<polygon class="st2" points="258,600 172,450 344,450 "/>
<polygon class="st0" points="430,600 344,450 516,450 "/>
<polygon class="st0" points="602,600 516,450 688,450 "/>
<polygon class="st2" points="774,600 688,450 860,450 "/>
<polygon class="st0" points="946,600 860,450 1032,450 "/>
<polygon class="st2" points="1118,600 1032,450 1204,450 "/>
<polygon class="st0" points="1290,600 1204,450 1376,450 "/>
<polygon class="st0" points="1462,600 1376,450 1548,450 "/>
<polygon class="st0" points="1634,600 1548,450 1720,450 "/>
<polygon class="st0" points="1806,600 1720,450 1892,450 "/>
<polygon class="st0" points="1978,600 1892,450 2064,450 "/>
<polygon class="st0" points="0,450 86,600 -86,600 "/>
<polygon class="st1" points="172,450 258,600 86,600 "/>
<polygon class="st0" points="344,450 430,600 258,600 "/>
<polygon class="st1" points="516,450 602,600 430,600 "/>
<polygon class="st2" points="688,450 774,600 602,600 "/>
<polygon class="st0" points="860,450 946,600 774,600 "/>
<polygon class="st2" points="1032,450 1118,600 946,600 "/>
<polygon class="st0" points="1204,450 1290,600 1118,600 "/>
<polygon class="st0" points="1376,450 1462,600 1290,600 "/>
<polygon class="st0" points="1548,450 1634,600 1462,600 "/>
<polygon class="st0" points="1720,450 1806,600 1634,600 "/>
<polygon class="st1" points="1892,450 1978,600 1806,600 "/>
<polygon class="st2" points="86,600 0,750 172,750 "/>
<polygon class="st0" points="258,600 172,750 344,750 "/>
<polygon class="st0" points="430,600 344,750 516,750 "/>
<polygon class="st1" points="602,600 516,750 688,750 "/>
<polygon class="st2" points="774,600 688,750 860,750 "/>
<polygon class="st1" points="946,600 860,750 1032,750 "/>
<polygon class="st0" points="1118,600 1032,750 1204,750 "/>
<polygon class="st2" points="1290,600 1204,750 1376,750 "/>
<polygon class="st0" points="1462,600 1376,750 1548,750 "/>
<polygon class="st0" points="1634,600 1548,750 1720,750 "/>
<polygon class="st0" points="1806,600 1720,750 1892,750 "/>
<polygon class="st0" points="1978,600 1892,750 2064,750 "/>
<polygon class="st2" points="0,750 86,600 -86,600 "/>
<polygon class="st2" points="172,750 258,600 86,600 "/>
<polygon class="st0" points="344,750 430,600 258,600 "/>
<polygon class="st0" points="516,750 602,600 430,600 "/>
<polygon class="st0" points="688,750 774,600 602,600 "/>
<polygon class="st0" points="860,750 946,600 774,600 "/>
<polygon class="st1" points="1032,750 1118,600 946,600 "/>
<polygon class="st2" points="1204,750 1290,600 1118,600 "/>
<polygon class="st1" points="1376,750 1462,600 1290,600 "/>
<polygon class="st2" points="1548,750 1634,600 1462,600 "/>
<polygon class="st0" points="1720,750 1806,600 1634,600 "/>
<polygon class="st0" points="1892,750 1978,600 1806,600 "/>
<polygon class="st1" points="86,900 0,750 172,750 "/>
<polygon class="st1" points="258,900 172,750 344,750 "/>
<polygon class="st2" points="430,900 344,750 516,750 "/>
<polygon class="st1" points="602,900 516,750 688,750 "/>
<polygon class="st2" points="774,900 688,750 860,750 "/>
<polygon class="st1" points="946,900 860,750 1032,750 "/>
<polygon class="st0" points="1118,900 1032,750 1204,750 "/>
<polygon class="st0" points="1290,900 1204,750 1376,750 "/>
<polygon class="st1" points="1462,900 1376,750 1548,750 "/>
<polygon class="st0" points="1634,900 1548,750 1720,750 "/>
<polygon class="st2" points="1806,900 1720,750 1892,750 "/>
<polygon class="st2" points="1978,900 1892,750 2064,750 "/>
<polygon class="st0" points="0,750 86,900 -86,900 "/>
<polygon class="st2" points="172,750 258,900 86,900 "/>
<polygon class="st0" points="344,750 430,900 258,900 "/>
<polygon class="st1" points="516,750 602,900 430,900 "/>
<polygon class="st0" points="688,750 774,900 602,900 "/>
<polygon class="st2" points="860,750 946,900 774,900 "/>
<polygon class="st0" points="1032,750 1118,900 946,900 "/>
<polygon class="st0" points="1204,750 1290,900 1118,900 "/>
<polygon class="st1" points="1376,750 1462,900 1290,900 "/>
<polygon class="st1" points="1548,750 1634,900 1462,900 "/>
<polygon class="st2" points="1720,750 1806,900 1634,900 "/>
<polygon class="st2" points="1892,750 1978,900 1806,900 "/>
<polygon class="st1" points="86,900 0,1050 172,1050 "/>
<polygon class="st1" points="258,900 172,1050 344,1050 "/>
<polygon class="st0" points="430,900 344,1050 516,1050 "/>
<polygon class="st0" points="602,900 516,1050 688,1050 "/>
<polygon class="st0" points="774,900 688,1050 860,1050 "/>
<polygon class="st2" points="946,900 860,1050 1032,1050 "/>
<polygon class="st0" points="1118,900 1032,1050 1204,1050 "/>
<polygon class="st0" points="1290,900 1204,1050 1376,1050 "/>
<polygon class="st2" points="1462,900 1376,1050 1548,1050 "/>
<polygon class="st0" points="1634,900 1548,1050 1720,1050 "/>
<polygon class="st0" points="1806,900 1720,1050 1892,1050 "/>
<polygon class="st0" points="1978,900 1892,1050 2064,1050 "/>
<polygon class="st1" points="0,1050 86,900 -86,900 "/>
<polygon class="st0" points="172,1050 258,900 86,900 "/>
<polygon class="st0" points="344,1050 430,900 258,900 "/>
<polygon class="st0" points="516,1050 602,900 430,900 "/>
<polygon class="st1" points="688,1050 774,900 602,900 "/>
<polygon class="st0" points="860,1050 946,900 774,900 "/>
<polygon class="st2" points="1032,1050 1118,900 946,900 "/>
<polygon class="st2" points="1204,1050 1290,900 1118,900 "/>
<polygon class="st0" points="1376,1050 1462,900 1290,900 "/>
<polygon class="st2" points="1548,1050 1634,900 1462,900 "/>
<polygon class="st0" points="1720,1050 1806,900 1634,900 "/>
<polygon class="st1" points="1892,1050 1978,900 1806,900 "/>
<polygon class="st0" points="86,1200 0,1050 172,1050 "/>
<polygon class="st0" points="258,1200 172,1050 344,1050 "/>
<polygon class="st0" points="430,1200 344,1050 516,1050 "/>
<polygon class="st1" points="602,1200 516,1050 688,1050 "/>
<polygon class="st1" points="774,1200 688,1050 860,1050 "/>
<polygon class="st1" points="946,1200 860,1050 1032,1050 "/>
<polygon class="st1" points="1118,1200 1032,1050 1204,1050 "/>
<polygon class="st1" points="1290,1200 1204,1050 1376,1050 "/>
<polygon class="st1" points="1462,1200 1376,1050 1548,1050 "/>
<polygon class="st1" points="1634,1200 1548,1050 1720,1050 "/>
<polygon class="st1" points="1806,1200 1720,1050 1892,1050 "/>
<polygon class="st0" points="1978,1200 1892,1050 2064,1050 "/>
<polygon class="st1" points="0,1050 86,1200 -86,1200 "/>
<polygon class="st1" points="172,1050 258,1200 86,1200 "/>
<polygon class="st2" points="344,1050 430,1200 258,1200 "/>
<polygon class="st2" points="516,1050 602,1200 430,1200 "/>
<polygon class="st2" points="688,1050 774,1200 602,1200 "/>
<polygon class="st1" points="860,1050 946,1200 774,1200 "/>
<polygon class="st0" points="1032,1050 1118,1200 946,1200 "/>
<polygon class="st1" points="1204,1050 1290,1200 1118,1200 "/>
<polygon class="st0" points="1376,1050 1462,1200 1290,1200 "/>
<polygon class="st1" points="1548,1050 1634,1200 1462,1200 "/>
<polygon class="st0" points="1720,1050 1806,1200 1634,1200 "/>
<polygon class="st1" points="1892,1050 1978,1200 1806,1200 "/>
</svg>
